<svg width="42" height="42" viewBox="0 0 42 42" fill="none" xmlns="http://www.w3.org/2000/svg">
<circle cx="21" cy="21" r="21" fill="#FF6700" fill-opacity="0.08"/>
<path d="M29.75 14.75C29.75 13.375 28.625 12.25 27.25 12.25H23.5V14.75H27.25V18.0625L22.9 23.5H18.5V17.25H13.5C10.7375 17.25 8.5 19.4875 8.5 22.25V26H11C11 28.075 12.675 29.75 14.75 29.75C16.825 29.75 18.5 28.075 18.5 26H24.1L29.75 18.9375V14.75ZM11 23.5V22.25C11 20.875 12.125 19.75 13.5 19.75H16V23.5H11ZM14.75 27.25C14.0625 27.25 13.5 26.6875 13.5 26H16C16 26.6875 15.4375 27.25 14.75 27.25Z" fill="#FF6700"/>
<path d="M12.25 13.5H18.5V16H12.25V13.5ZM29.75 22.25C27.675 22.25 26 23.925 26 26C26 28.075 27.675 29.75 29.75 29.75C31.825 29.75 33.5 28.075 33.5 26C33.5 23.925 31.825 22.25 29.75 22.25ZM29.75 27.25C29.0625 27.25 28.5 26.6875 28.5 26C28.5 25.3125 29.0625 24.75 29.75 24.75C30.4375 24.75 31 25.3125 31 26C31 26.6875 30.4375 27.25 29.75 27.25Z" fill="#FF6700"/>
</svg>
