<svg width="42" height="42" viewBox="0 0 42 42" fill="none" xmlns="http://www.w3.org/2000/svg">
<circle cx="21" cy="21" r="21" fill="#FF6700" fill-opacity="0.08"/>
<path d="M21.1237 12.0009C19.9316 11.984 18.7482 12.2043 17.642 12.6488C16.5358 13.0933 15.529 13.7532 14.6801 14.5902C13.8312 15.4271 13.1571 16.4245 12.697 17.5243C12.2369 18.624 12 19.8043 12 20.9964C12 22.1885 12.2369 23.3688 12.697 24.4685C13.1571 25.5683 13.8312 26.5657 14.6801 27.4026C15.529 28.2396 16.5358 28.8995 17.642 29.344C18.7482 29.7885 19.9316 30.0088 21.1237 29.9919C23.4874 29.9585 25.7429 28.996 27.4026 27.3127C29.0624 25.6293 29.9928 23.3604 29.9928 20.9964C29.9928 18.6324 29.0624 16.3635 27.4026 14.6801C25.7429 12.9968 23.4874 12.0343 21.1237 12.0009ZM13.9273 20.9973C13.9122 20.0428 14.0871 19.0948 14.4419 18.2086C14.7968 17.3224 15.3244 16.5156 15.994 15.8353C16.6637 15.1549 17.462 14.6146 18.3425 14.2458C19.223 13.877 20.1681 13.6871 21.1228 13.6871C22.0774 13.6871 23.0225 13.877 23.903 14.2458C24.7835 14.6146 25.5818 15.1549 26.2515 15.8353C26.9211 16.5156 27.4487 17.3224 27.8036 18.2086C28.1584 19.0948 28.3333 20.0428 28.3183 20.9973C28.2884 22.886 27.5171 24.6871 26.171 26.0122C24.8248 27.3372 23.0116 28.0799 21.1228 28.0799C19.2339 28.0799 17.4207 27.3372 16.0745 26.0122C14.7284 24.6871 13.9571 22.886 13.9273 20.9973ZM24.9145 18.1137C24.9983 18.1973 25.0648 18.2966 25.1101 18.406C25.1555 18.5153 25.1789 18.6325 25.1789 18.7509C25.1789 18.8693 25.1555 18.9865 25.1101 19.0958C25.0648 19.2052 24.9983 19.3045 24.9145 19.3881L20.8645 23.4381C20.7808 23.5219 20.6815 23.5884 20.5722 23.6338C20.4628 23.6792 20.3456 23.7025 20.2273 23.7025C20.1089 23.7025 19.9917 23.6792 19.8823 23.6338C19.773 23.5884 19.6737 23.5219 19.5901 23.4381L17.7901 21.6381C17.6211 21.4691 17.5261 21.2399 17.5261 21.0009C17.5261 20.7619 17.6211 20.5327 17.7901 20.3637C17.959 20.1947 18.1883 20.0998 18.4273 20.0998C18.6662 20.0998 18.8955 20.1947 19.0645 20.3637L20.2273 21.5283L23.64 18.1137C23.7237 18.0299 23.823 17.9634 23.9323 17.918C24.0417 17.8726 24.1589 17.8493 24.2773 17.8493C24.3956 17.8493 24.5128 17.8726 24.6222 17.918C24.7315 17.9634 24.8308 18.0299 24.9145 18.1137Z" fill="#FF6700"/>
</svg>
