<svg width="151" height="20" viewBox="0 0 151 20" fill="none" xmlns="http://www.w3.org/2000/svg">
<path d="M1.11377 19L0 0H11.5797V3.42046H3.22741V9.31819H10.7956V11.1932H3.22741V19H1.11377Z" fill="white"/>
<path d="M19.2842 19.2727C18.1024 19.2727 17.0655 18.9915 16.1734 18.429C15.2871 17.8665 14.5939 17.0796 14.0939 16.0682C13.5996 15.0568 13.3524 13.875 13.3524 12.5227C13.3524 11.1591 13.5996 9.96876 14.0939 8.95171C14.5939 7.93466 15.2871 7.14489 16.1734 6.58239C17.0655 6.01989 18.1024 5.73864 19.2842 5.73864C20.466 5.73864 21.5001 6.01989 22.3865 6.58239C23.2785 7.14489 23.9717 7.93466 24.466 8.95171C24.966 9.96876 25.216 11.1591 25.216 12.5227C25.216 13.875 24.966 15.0568 24.466 16.0682C23.9717 17.0796 23.2785 17.8665 22.3865 18.429C21.5001 18.9915 20.466 19.2727 19.2842 19.2727ZM19.2842 17.4659C20.1819 17.4659 20.9206 17.2358 21.5001 16.7756C22.0797 16.3153 22.5087 15.7102 22.7871 14.9602C23.0655 14.2102 23.2047 13.3977 23.2047 12.5227C23.2047 11.6477 23.0655 10.8324 22.7871 10.0767C22.5087 9.32103 22.0797 8.71023 21.5001 8.24432C20.9206 7.77841 20.1819 7.54546 19.2842 7.54546C18.3865 7.54546 17.6479 7.77841 17.0683 8.24432C16.4888 8.71023 16.0598 9.32103 15.7814 10.0767C15.503 10.8324 15.3638 11.6477 15.3638 12.5227C15.3638 13.3977 15.503 14.2102 15.7814 14.9602C16.0598 15.7102 16.4888 16.3153 17.0683 16.7756C17.6479 17.2358 18.3865 17.4659 19.2842 17.4659Z" fill="white"/>
<path d="M33.6045 19.2727C32.4227 19.2727 31.3858 18.9915 30.4937 18.429C29.6074 17.8665 28.9142 17.0796 28.4142 16.0682C27.9199 15.0568 27.6727 13.875 27.6727 12.5227C27.6727 11.1591 27.9199 9.96876 28.4142 8.95171C28.9142 7.93466 29.6074 7.14489 30.4937 6.58239C31.3858 6.01989 32.4227 5.73864 33.6045 5.73864C34.7864 5.73864 35.8204 6.01989 36.7068 6.58239C37.5989 7.14489 38.292 7.93466 38.7864 8.95171C39.2864 9.96876 39.5364 11.1591 39.5364 12.5227C39.5364 13.875 39.2864 15.0568 38.7864 16.0682C38.292 17.0796 37.5989 17.8665 36.7068 18.429C35.8204 18.9915 34.7864 19.2727 33.6045 19.2727ZM33.6045 17.4659C34.5023 17.4659 35.2409 17.2358 35.8204 16.7756C36.4 16.3153 36.829 15.7102 37.1074 14.9602C37.3858 14.2102 37.525 13.3977 37.525 12.5227C37.525 11.6477 37.3858 10.8324 37.1074 10.0767C36.829 9.32103 36.4 8.71023 35.8204 8.24432C35.2409 7.77841 34.5023 7.54546 33.6045 7.54546C32.7068 7.54546 31.9682 7.77841 31.3886 8.24432C30.8091 8.71023 30.3801 9.32103 30.1017 10.0767C29.8233 10.8324 29.6841 11.6477 29.6841 12.5227C29.6841 13.3977 29.8233 14.2102 30.1017 14.9602C30.3801 15.7102 30.8091 16.3153 31.3886 16.7756C31.9682 17.2358 32.7068 17.4659 33.6045 17.4659Z" fill="white"/>
<path d="M47.5499 19.2727C46.4589 19.2727 45.4959 18.9972 44.6606 18.446C43.8254 17.8892 43.172 17.1051 42.7004 16.0938C42.2288 15.0767 41.993 13.875 41.993 12.4886C41.993 11.1136 42.2288 9.92046 42.7004 8.9091C43.172 7.89773 43.8283 7.11648 44.6692 6.56535C45.5101 6.01421 46.4817 5.73864 47.5839 5.73864C48.4362 5.73864 49.1095 5.88069 49.6038 6.16478C50.1038 6.44319 50.4845 6.76137 50.7459 7.11932C51.0129 7.4716 51.2203 7.76137 51.368 7.98864H51.5385V1.54546H53.5499V19H51.6067V16.9886H51.368C51.2203 17.2273 51.0101 17.5284 50.7374 17.8921C50.4646 18.25 50.0754 18.571 49.5697 18.8551C49.0641 19.1335 48.3908 19.2727 47.5499 19.2727ZM47.8226 17.4659C48.6294 17.4659 49.3112 17.2557 49.868 16.8352C50.4249 16.4091 50.8481 15.821 51.1379 15.071C51.4277 14.3153 51.5726 13.4432 51.5726 12.4546C51.5726 11.4773 51.4305 10.6222 51.1464 9.88921C50.8623 9.15057 50.4419 8.57671 49.8851 8.16762C49.3283 7.75285 48.6408 7.54546 47.8226 7.54546C46.9703 7.54546 46.2601 7.76421 45.6919 8.20171C45.1294 8.63353 44.7061 9.2216 44.422 9.96591C44.1436 10.7046 44.0044 11.5341 44.0044 12.4546C44.0044 13.3864 44.1464 14.233 44.4305 14.9943C44.7203 15.75 45.1464 16.3523 45.7089 16.8011C46.2771 17.2443 46.9817 17.4659 47.8226 17.4659Z" fill="white"/>
<path d="M71.8311 7.00001H69.7175C69.5925 6.39205 69.3737 5.85796 69.0612 5.39773C68.7544 4.93751 68.3794 4.55114 67.9362 4.23864C67.4987 3.92046 67.0129 3.68182 66.4788 3.52273C65.9447 3.36364 65.3879 3.2841 64.8084 3.2841C63.7516 3.2841 62.7942 3.55114 61.9362 4.08523C61.0839 4.61932 60.405 5.40626 59.8993 6.44603C59.3993 7.4858 63 8.37785 63 9.88921C63 11.4006 59.3993 13.0597 59.8993 14.0994C60.405 15.1392 61.0839 15.9261 61.9362 16.4602C62.7942 16.9943 63.7516 17.2614 64.8084 17.2614C65.3879 17.2614 65.9447 17.1818 66.4788 17.0227C67.0129 16.8636 67.4987 16.6278 67.9362 16.3153C68.3794 15.9972 68.7544 15.608 69.0612 15.1477C69.3737 14.6818 69.5925 14.1477 69.7175 13.5455H71.8311C71.672 14.4375 71.3822 15.2358 70.9618 15.9403C70.5413 16.6449 70.0186 17.2443 69.3936 17.7386C68.7686 18.2273 68.0669 18.5994 67.2885 18.8551C66.5158 19.1108 65.6891 19.2386 64.8084 19.2386C63.3197 19.2386 61.9959 18.875 60.8368 18.1477C59.6777 17.4205 58.7658 16.3864 58.101 15.0455C57.4362 13.7046 57.1038 12.1136 57.1038 10.2727C57.1038 8.43182 57.4362 6.84092 58.101 5.50001C58.7658 4.1591 59.6777 3.12501 60.8368 2.39773C61.9959 1.67046 63.3197 1.28711 64.8084 1.28711C65.6891 1.28711 66.5101 1.43466 67.2885 1.69035C68.0669 1.94603 68.7686 2.32103 69.3936 2.81535C70.0186 3.30398 70.5413 3.90057 70.9618 4.60512C71.3822 5.30398 71.672 6.10228 71.8311 7.00001Z" fill="white"/>
<path d="M80.292 19.2727C79.1102 19.2727 78.0733 18.9915 77.1812 18.429C76.2949 17.8665 75.6017 17.0796 75.1017 16.0682C74.6074 15.0568 74.3602 13.875 74.3602 12.5227C74.3602 11.1591 74.6074 9.96876 75.1017 8.95171C75.6017 7.93466 76.2949 7.14489 77.1812 6.58239C78.0733 6.01989 79.1102 5.73864 80.292 5.73864C81.4739 5.73864 82.5079 6.01989 83.3943 6.58239C84.2864 7.14489 84.9795 7.93466 85.4739 8.95171C85.9739 9.96876 86.2239 11.1591 86.2239 12.5227C86.2239 13.875 85.9739 15.0568 85.4739 16.0682C84.9795 17.0796 84.2864 17.8665 83.3943 18.429C82.5079 18.9915 81.4739 19.2727 80.292 19.2727ZM80.292 17.4659C81.1898 17.4659 81.9284 17.2358 82.5079 16.7756C83.0875 16.3153 83.5165 15.7102 83.7949 14.9602C84.0733 14.2102 84.2125 13.3977 84.2125 12.5227C84.2125 11.6477 84.0733 10.8324 83.7949 10.0767C83.5165 9.32103 83.0875 8.71023 82.5079 8.24432C81.9284 7.77841 81.1898 7.54546 80.292 7.54546C79.3943 7.54546 78.6557 7.77841 78.0761 8.24432C77.4966 8.71023 77.0676 9.32103 76.7892 10.0767C76.5108 10.8324 76.3716 11.6477 76.3716 12.5227C76.3716 13.3977 76.5108 14.2102 76.7892 14.9602C77.0676 15.7102 77.4966 16.3153 78.0761 16.7756C78.6557 17.2358 79.3943 17.4659 80.292 17.4659Z" fill="white"/>
<path d="M91.3055 11.125V19H89.2942V5.9091H91.2374V7.95455H91.4078C91.7146 7.28978 92.1805 6.75569 92.8055 6.35228C93.4305 5.94319 94.2373 5.73864 95.226 5.73864C96.1123 5.73864 96.8879 5.92046 97.5527 6.2841C98.2175 6.64205 98.7345 7.18751 99.1038 7.92046C99.4731 8.64773 99.6578 9.56819 99.6578 10.6818V19H97.6464V10.8182C97.6464 9.78978 97.3794 8.98864 96.8453 8.41478C96.3112 7.83523 95.5783 7.54546 94.6464 7.54546C94.0044 7.54546 93.4305 7.68466 92.9249 7.96307C92.4249 8.24148 92.03 8.64773 91.7402 9.18182C91.4504 9.71591 91.3055 10.3636 91.3055 11.125Z" fill="white"/>
<path d="M105.345 11.125V19H103.333V5.9091H105.276V7.95455H105.447C105.754 7.28978 106.22 6.75569 106.845 6.35228C107.47 5.94319 108.276 5.73864 109.265 5.73864C110.151 5.73864 110.927 5.92046 111.592 6.2841C112.257 6.64205 112.774 7.18751 113.143 7.92046C113.512 8.64773 113.697 9.56819 113.697 10.6818V19H111.686V10.8182C111.686 9.78978 111.418 8.98864 110.884 8.41478C110.35 7.83523 109.617 7.54546 108.686 7.54546C108.043 7.54546 107.47 7.68466 106.964 7.96307C106.464 8.24148 106.069 8.64773 105.779 9.18182C105.489 9.71591 105.345 10.3636 105.345 11.125Z" fill="white"/>
<path d="M122.861 19.2727C121.6 19.2727 120.511 18.9943 119.597 18.4375C118.688 17.875 117.986 17.0909 117.492 16.0852C117.003 15.0739 116.759 13.8977 116.759 12.5568C116.759 11.2159 117.003 10.0341 117.492 9.01137C117.986 7.98296 118.673 7.18182 119.554 6.60796C120.44 6.02841 121.475 5.73864 122.656 5.73864C123.338 5.73864 124.011 5.85228 124.676 6.07955C125.341 6.30682 125.946 6.67614 126.492 7.18751C127.037 7.69319 127.472 8.36364 127.796 9.19887C128.119 10.0341 128.281 11.0625 128.281 12.2841V13.1364H118.19V11.3977H126.236C126.236 10.6591 126.088 10 125.793 9.42046C125.503 8.84091 125.088 8.38353 124.548 8.0483C124.014 7.71307 123.384 7.54546 122.656 7.54546C121.855 7.54546 121.162 7.74432 120.577 8.14205C119.997 8.5341 119.551 9.04546 119.239 9.67614C118.926 10.3068 118.77 10.983 118.77 11.7046V12.8636C118.77 13.8523 118.94 14.6903 119.281 15.3778C119.628 16.0597 120.108 16.5796 120.722 16.9375C121.335 17.2898 122.048 17.4659 122.861 17.4659C123.389 17.4659 123.867 17.3921 124.293 17.2443C124.725 17.0909 125.097 16.8636 125.409 16.5625C125.722 16.2557 125.963 15.875 126.134 15.4205L128.077 15.9659C127.872 16.625 127.529 17.2046 127.046 17.7046C126.563 18.1989 125.966 18.5852 125.256 18.8636C124.546 19.1364 123.747 19.2727 122.861 19.2727Z" fill="white"/>
<path d="M136.659 19.2727C135.432 19.2727 134.375 18.983 133.489 18.4034C132.602 17.8239 131.921 17.0256 131.443 16.0085C130.966 14.9915 130.727 13.8296 130.727 12.5227C130.727 11.1932 130.972 10.0199 131.46 9.00285C131.955 7.98012 132.642 7.18182 133.523 6.60796C134.409 6.02841 135.443 5.73864 136.625 5.73864C137.546 5.73864 138.375 5.9091 139.114 6.25001C139.852 6.59092 140.458 7.06819 140.929 7.68182C141.401 8.29546 141.693 9.01137 141.807 9.82955H139.796C139.642 9.23296 139.301 8.70455 138.773 8.24432C138.25 7.77841 137.546 7.54546 136.659 7.54546C135.875 7.54546 135.188 7.75001 134.597 8.1591C134.012 8.56251 133.554 9.13353 133.225 9.87216C132.901 10.6051 132.739 11.4659 132.739 12.4546C132.739 13.4659 132.898 14.3466 133.216 15.0966C133.54 15.8466 133.994 16.429 134.58 16.8438C135.171 17.2585 135.864 17.4659 136.659 17.4659C137.182 17.4659 137.656 17.375 138.083 17.1932C138.509 17.0114 138.869 16.75 139.165 16.4091C139.46 16.0682 139.671 15.6591 139.796 15.1818H141.807C141.693 15.9546 141.412 16.6506 140.963 17.2699C140.52 17.8835 139.932 18.3722 139.199 18.7358C138.472 19.0938 137.625 19.2727 136.659 19.2727Z" fill="white"/>
<path d="M150.44 5.9091V7.61364H143.656V5.9091H150.44ZM145.634 2.77273H147.645V15.25C147.645 15.8182 147.727 16.2443 147.892 16.5284C148.063 16.8068 148.279 16.9943 148.54 17.0909C148.807 17.1818 149.088 17.2273 149.384 17.2273C149.605 17.2273 149.787 17.2159 149.929 17.1932C150.071 17.1648 150.185 17.1421 150.27 17.125L150.679 18.9318C150.543 18.983 150.352 19.0341 150.108 19.0852C149.864 19.1421 149.554 19.1705 149.179 19.1705C148.611 19.1705 148.054 19.0483 147.509 18.804C146.969 18.5597 146.52 18.1875 146.162 17.6875C145.81 17.1875 145.634 16.5568 145.634 15.7955V2.77273Z" fill="white"/>
</svg>
