<svg width="256" height="32" viewBox="0 0 256 32" fill="none" xmlns="http://www.w3.org/2000/svg">
<path d="M1.89227 31.5472L0 0H19.6736V5.67925H5.48328V15.4717H18.3414V18.5849H5.48328V31.5472H1.89227Z" fill="#FF6700"/>
<path d="M32.7634 32C30.7555 32 28.9938 31.533 27.4782 30.5991C25.9723 29.6651 24.7946 28.3585 23.9452 26.6792C23.1053 25 22.6854 23.0377 22.6854 20.7925C22.6854 18.5283 23.1053 16.5519 23.9452 14.8632C24.7946 13.1745 25.9723 11.8632 27.4782 10.9293C28.9938 9.99529 30.7555 9.52831 32.7634 9.52831C34.7713 9.52831 36.5282 9.99529 38.0341 10.9293C39.5497 11.8632 40.7274 13.1745 41.5672 14.8632C42.4167 16.5519 42.8414 18.5283 42.8414 20.7925C42.8414 23.0377 42.4167 25 41.5672 26.6792C40.7274 28.3585 39.5497 29.6651 38.0341 30.5991C36.5282 31.533 34.7713 32 32.7634 32ZM32.7634 29C34.2886 29 35.5435 28.6179 36.5282 27.8538C37.5128 27.0896 38.2416 26.0849 38.7146 24.8396C39.1877 23.5943 39.4242 22.2453 39.4242 20.7925C39.4242 19.3396 39.1877 17.9859 38.7146 16.7311C38.2416 15.4764 37.5128 14.4623 36.5282 13.6887C35.5435 12.9151 34.2886 12.5283 32.7634 12.5283C31.2382 12.5283 29.9833 12.9151 28.9986 13.6887C28.014 14.4623 27.2852 15.4764 26.8122 16.7311C26.3392 17.9859 26.1027 19.3396 26.1027 20.7925C26.1027 22.2453 26.3392 23.5943 26.8122 24.8396C27.2852 26.0849 28.014 27.0896 28.9986 27.8538C29.9833 28.6179 31.2382 29 32.7634 29Z" fill="#FF6700"/>
<path d="M57.0933 32C55.0854 32 53.3237 31.533 51.8081 30.5991C50.3022 29.6651 49.1245 28.3585 48.275 26.6792C47.4352 25 47.0152 23.0377 47.0152 20.7925C47.0152 18.5283 47.4352 16.5519 48.275 14.8632C49.1245 13.1745 50.3022 11.8632 51.8081 10.9293C53.3237 9.99529 55.0854 9.52831 57.0933 9.52831C59.1011 9.52831 60.858 9.99529 62.3639 10.9293C63.8795 11.8632 65.0572 13.1745 65.897 14.8632C66.7465 16.5519 67.1713 18.5283 67.1713 20.7925C67.1713 23.0377 66.7465 25 65.897 26.6792C65.0572 28.3585 63.8795 29.6651 62.3639 30.5991C60.858 31.533 59.1011 32 57.0933 32ZM57.0933 29C58.6185 29 59.8734 28.6179 60.858 27.8538C61.8427 27.0896 62.5715 26.0849 63.0445 24.8396C63.5175 23.5943 63.754 22.2453 63.754 20.7925C63.754 19.3396 63.5175 17.9859 63.0445 16.7311C62.5715 15.4764 61.8427 14.4623 60.858 13.6887C59.8734 12.9151 58.6185 12.5283 57.0933 12.5283C55.568 12.5283 54.3131 12.9151 53.3285 13.6887C52.3439 14.4623 51.615 15.4764 51.142 16.7311C50.669 17.9859 50.4325 19.3396 50.4325 20.7925C50.4325 22.2453 50.669 23.5943 51.142 24.8396C51.615 26.0849 52.3439 27.0896 53.3285 27.8538C54.3131 28.6179 55.568 29 57.0933 29Z" fill="#FF6700"/>
<path d="M80.786 32C78.9326 32 77.2963 31.5425 75.8773 30.6274C74.4583 29.7028 73.3482 28.4009 72.5469 26.7217C71.7457 25.033 71.3451 23.0377 71.3451 20.7359C71.3451 18.4528 71.7457 16.4717 72.5469 14.7925C73.3482 13.1132 74.4631 11.816 75.8918 10.9009C77.3205 9.98586 78.9712 9.52831 80.8439 9.52831C82.2919 9.52831 83.4358 9.76416 84.2756 10.2359C85.1251 10.6981 85.7719 11.2264 86.216 11.8208C86.6697 12.4057 87.022 12.8868 87.273 13.2642H87.5626V2.56605H90.9798V31.5472H87.6784V28.2076H87.273C87.022 28.6038 86.6648 29.1038 86.2015 29.7075C85.7381 30.3019 85.0769 30.8349 84.2177 31.3066C83.3586 31.7689 82.2147 32 80.786 32ZM81.2493 29C82.6201 29 83.7785 28.6509 84.7245 27.9528C85.6705 27.2453 86.3897 26.2689 86.882 25.0236C87.3743 23.7689 87.6205 22.3208 87.6205 20.6792C87.6205 19.0566 87.3792 17.6368 86.8965 16.4198C86.4138 15.1934 85.6995 14.2406 84.7535 13.5613C83.8075 12.8726 82.6394 12.5283 81.2493 12.5283C79.8014 12.5283 78.5947 12.8915 77.6294 13.6179C76.6737 14.3349 75.9545 15.3113 75.4719 16.5472C74.9989 17.7736 74.7624 19.1509 74.7624 20.6792C74.7624 22.2264 75.0037 23.6321 75.4864 24.8962C75.9787 26.1509 76.7027 27.1509 77.6583 27.8962C78.6237 28.6321 79.8207 29 81.2493 29Z" fill="#FF6700"/>
<path d="M122.039 11.6226H118.448C118.236 10.6132 117.864 9.72642 117.333 8.96227C116.812 8.19812 116.175 7.55661 115.422 7.03774C114.679 6.50944 113.853 6.11322 112.946 5.84906C112.038 5.58491 111.092 5.45284 110.108 5.45284C108.312 5.45284 106.686 5.89623 105.228 6.78303C103.78 7.66982 102.627 8.97642 101.767 10.7028C100.918 12.4293 107.035 13.9104 107.035 16.4198C107.035 18.9292 100.918 21.684 101.767 23.4104C102.627 25.1368 103.78 26.4434 105.228 27.3302C106.686 28.217 108.312 28.6604 110.108 28.6604C111.092 28.6604 112.038 28.5283 112.946 28.2642C113.853 28 114.679 27.6085 115.422 27.0896C116.175 26.5613 116.812 25.9151 117.333 25.1509C117.864 24.3774 118.236 23.4906 118.448 22.4906H122.039C121.769 23.9717 121.277 25.2972 120.562 26.467C119.848 27.6368 118.96 28.6321 117.898 29.4528C116.836 30.2641 115.644 30.8821 114.321 31.3066C113.009 31.7311 111.604 31.9434 110.108 31.9434C107.579 31.9434 105.329 31.3396 103.36 30.1321C101.391 28.9245 99.8415 27.2075 98.7121 24.9811C97.5827 22.7547 97.018 20.1132 97.018 17.0566C97.018 14 97.5827 11.3585 98.7121 9.13208C99.8415 6.90567 101.391 5.18869 103.36 3.98114C105.329 2.77359 107.579 2.13709 110.108 2.13709C111.604 2.13709 112.999 2.38208 114.321 2.80661C115.644 3.23114 116.836 3.85378 117.898 4.67454C118.96 5.48586 119.848 6.47642 120.562 7.64623C121.277 8.80661 121.769 10.1321 122.039 11.6226Z" fill="#FF6700"/>
<path d="M136.414 32C134.406 32 132.645 31.533 131.129 30.5991C129.623 29.6651 128.445 28.3585 127.596 26.6792C126.756 25 126.336 23.0377 126.336 20.7925C126.336 18.5283 126.756 16.5519 127.596 14.8632C128.445 13.1745 129.623 11.8632 131.129 10.9293C132.645 9.99529 134.406 9.52831 136.414 9.52831C138.422 9.52831 140.179 9.99529 141.685 10.9293C143.2 11.8632 144.378 13.1745 145.218 14.8632C146.067 16.5519 146.492 18.5283 146.492 20.7925C146.492 23.0377 146.067 25 145.218 26.6792C144.378 28.3585 143.2 29.6651 141.685 30.5991C140.179 31.533 138.422 32 136.414 32ZM136.414 29C137.939 29 139.194 28.6179 140.179 27.8538C141.164 27.0896 141.892 26.0849 142.365 24.8396C142.838 23.5943 143.075 22.2453 143.075 20.7925C143.075 19.3396 142.838 17.9859 142.365 16.7311C141.892 15.4764 141.164 14.4623 140.179 13.6887C139.194 12.9151 137.939 12.5283 136.414 12.5283C134.889 12.5283 133.634 12.9151 132.649 13.6887C131.665 14.4623 130.936 15.4764 130.463 16.7311C129.99 17.9859 129.753 19.3396 129.753 20.7925C129.753 22.2453 129.99 23.5943 130.463 24.8396C130.936 26.0849 131.665 27.0896 132.649 27.8538C133.634 28.6179 134.889 29 136.414 29Z" fill="#FF6700"/>
<path d="M155.126 18.4717V31.5472H151.709V9.81133H155.01V13.2076H155.3C155.821 12.1038 156.612 11.217 157.674 10.5472C158.736 9.86793 160.107 9.52831 161.787 9.52831C163.292 9.52831 164.61 9.8302 165.74 10.434C166.869 11.0283 167.747 11.934 168.375 13.1509C169.002 14.3585 169.316 15.8868 169.316 17.7359V31.5472H165.899V17.9623C165.899 16.2547 165.445 14.9245 164.538 13.9717C163.63 13.0094 162.385 12.5283 160.802 12.5283C159.711 12.5283 158.736 12.7594 157.877 13.2217C157.027 13.684 156.357 14.3585 155.864 15.2453C155.372 16.1321 155.126 17.2076 155.126 18.4717Z" fill="#FF6700"/>
<path d="M178.978 18.4717V31.5472H175.561V9.81133H178.862V13.2076H179.152C179.673 12.1038 180.464 11.217 181.526 10.5472C182.588 9.86793 183.959 9.52831 185.639 9.52831C187.144 9.52831 188.462 9.8302 189.592 10.434C190.721 11.0283 191.599 11.934 192.227 13.1509C192.854 14.3585 193.168 15.8868 193.168 17.7359V31.5472H189.751V17.9623C189.751 16.2547 189.297 14.9245 188.39 13.9717C187.482 13.0094 186.237 12.5283 184.654 12.5283C183.563 12.5283 182.588 12.7594 181.729 13.2217C180.88 13.684 180.209 14.3585 179.716 15.2453C179.224 16.1321 178.978 17.2076 178.978 18.4717Z" fill="#FF6700"/>
<path d="M208.738 32C206.595 32 204.746 31.5377 203.192 30.6132C201.647 29.6792 200.455 28.3774 199.615 26.7075C198.785 25.0283 198.37 23.0755 198.37 20.8491C198.37 18.6226 198.785 16.6604 199.615 14.9623C200.455 13.2547 201.623 11.9245 203.119 10.9717C204.625 10.0094 206.382 9.52831 208.39 9.52831C209.548 9.52831 210.692 9.71699 211.822 10.0943C212.951 10.4717 213.979 11.0849 214.906 11.934C215.833 12.7736 216.571 13.8868 217.121 15.2736C217.672 16.6604 217.947 18.3679 217.947 20.3962V21.8113H200.803V18.9245H214.472C214.472 17.6981 214.221 16.6038 213.719 15.6415C213.226 14.6792 212.522 13.9198 211.605 13.3632C210.697 12.8066 209.626 12.5283 208.39 12.5283C207.029 12.5283 205.851 12.8585 204.857 13.5189C203.872 14.1698 203.115 15.0189 202.584 16.066C202.053 17.1132 201.787 18.2359 201.787 19.434V21.3585C201.787 23 202.077 24.3915 202.656 25.533C203.245 26.6651 204.061 27.5283 205.103 28.1226C206.146 28.7075 207.357 29 208.738 29C209.635 29 210.446 28.8774 211.17 28.6321C211.904 28.3774 212.536 28 213.067 27.5C213.598 26.9906 214.008 26.3585 214.298 25.6038L217.599 26.5094C217.252 27.6038 216.668 28.566 215.847 29.3962C215.027 30.217 214.013 30.8585 212.806 31.3208C211.6 31.7736 210.244 32 208.738 32Z" fill="#FF6700"/>
<path d="M232.181 32C230.095 32 228.3 31.5189 226.794 30.5566C225.288 29.5943 224.13 28.2689 223.319 26.5802C222.508 24.8915 222.103 22.9623 222.103 20.7925C222.103 18.5849 222.518 16.6368 223.348 14.9481C224.188 13.25 225.356 11.9245 226.852 10.9717C228.358 10.0094 230.115 9.52831 232.123 9.52831C233.686 9.52831 235.096 9.81133 236.351 10.3774C237.606 10.9434 238.634 11.7359 239.435 12.7547C240.236 13.7736 240.733 14.9623 240.926 16.3208H237.509C237.249 15.3302 236.669 14.4528 235.772 13.6887C234.883 12.9151 233.686 12.5283 232.181 12.5283C230.848 12.5283 229.68 12.8679 228.676 13.5472C227.682 14.217 226.905 15.1651 226.345 16.3915C225.795 17.6085 225.52 19.0377 225.52 20.6792C225.52 22.3585 225.79 23.8208 226.331 25.066C226.881 26.3113 227.653 27.2783 228.647 27.967C229.651 28.6557 230.829 29 232.181 29C233.069 29 233.875 28.8491 234.599 28.5472C235.323 28.2453 235.936 27.8113 236.438 27.2453C236.94 26.6792 237.297 26 237.509 25.2075H240.926C240.733 26.4906 240.256 27.6462 239.493 28.6745C238.74 29.6934 237.741 30.5047 236.496 31.1085C235.26 31.7028 233.822 32 232.181 32Z" fill="#FF6700"/>
<path d="M255.595 9.81133V12.6415H244.069V9.81133H255.595ZM247.428 4.60378H250.845V25.3208C250.845 26.2642 250.985 26.9717 251.265 27.4434C251.555 27.9057 251.921 28.217 252.366 28.3774C252.819 28.5283 253.297 28.6038 253.799 28.6038C254.176 28.6038 254.484 28.5849 254.726 28.5472C254.967 28.5 255.16 28.4623 255.305 28.434L256 31.434C255.768 31.5189 255.445 31.6038 255.03 31.6887C254.615 31.783 254.089 31.8302 253.452 31.8302C252.486 31.8302 251.54 31.6274 250.613 31.2217C249.696 30.816 248.934 30.1981 248.326 29.3679C247.727 28.5377 247.428 27.4906 247.428 26.2264V4.60378Z" fill="#FF6700"/>
</svg>
