<svg width="54" height="54" viewBox="0 0 54 54" fill="none" xmlns="http://www.w3.org/2000/svg">
<circle cx="26.9904" cy="26.9905" r="26.9905" fill="#FF6700" fill-opacity="0.08"/>
<path d="M38.8056 24.6309H37.835V24.5809H26.9906V29.4006H33.8003C32.8068 32.2063 30.1373 34.2203 26.9906 34.2203C22.9981 34.2203 19.761 30.9833 19.761 26.9907C19.761 22.9982 22.9981 19.7611 26.9906 19.7611C28.8335 19.7611 30.5102 20.4564 31.7868 21.592L35.195 18.1839C33.043 16.1783 30.1644 14.9414 26.9906 14.9414C20.3364 14.9414 14.9413 20.3365 14.9413 26.9907C14.9413 33.645 20.3364 39.04 26.9906 39.04C33.6448 39.04 39.0399 33.645 39.0399 26.9907C39.0399 26.1828 38.9568 25.3942 38.8056 24.6309Z" fill="#FFC107"/>
<path d="M16.3309 21.3824L20.2897 24.2857C21.3609 21.6336 23.9551 19.7611 26.9909 19.7611C28.8338 19.7611 30.5105 20.4564 31.7871 21.592L35.1953 18.1839C33.0433 16.1783 30.1647 14.9414 26.9909 14.9414C22.3628 14.9414 18.3491 17.5543 16.3309 21.3824Z" fill="#FF3D00"/>
<path d="M26.9909 39.0399C30.1032 39.0399 32.9312 37.8488 35.0693 35.9119L31.3401 32.7562C30.0897 33.7071 28.5618 34.2214 26.9909 34.2202C23.8569 34.2202 21.1958 32.2218 20.1933 29.433L16.264 32.4604C18.2581 36.3625 22.3079 39.0399 26.9909 39.0399Z" fill="#4CAF50"/>
<path d="M38.8057 24.6308H37.8352V24.5808H26.9908V29.4005H33.8005C33.3252 30.7358 32.4692 31.9027 31.3382 32.7569L31.34 32.7557L35.0692 35.9114C34.8054 36.1512 39.0401 33.0153 39.0401 26.9907C39.0401 26.1828 38.957 25.3941 38.8057 24.6308Z" fill="#1976D2"/>
</svg>
