<svg width="22" height="22" viewBox="0 0 22 22" fill="none" xmlns="http://www.w3.org/2000/svg">
<path fill-rule="evenodd" clip-rule="evenodd" d="M6.465 0.066061C7.638 0.012061 8.012 6.10352e-05 11 6.10352e-05C13.988 6.10352e-05 14.362 0.013061 15.534 0.066061C16.706 0.119061 17.506 0.306061 18.206 0.577061C18.939 0.854061 19.604 1.28706 20.154 1.84706C20.714 2.39606 21.146 3.06006 21.422 3.79406C21.694 4.49406 21.88 5.29406 21.934 6.46406C21.988 7.63906 22 8.01306 22 11.0001C22 13.9881 21.987 14.3621 21.934 15.5351C21.881 16.7051 21.694 17.5051 21.422 18.2051C21.146 18.9392 20.7133 19.6043 20.154 20.1541C19.604 20.7141 18.939 21.1461 18.206 21.4221C17.506 21.6941 16.706 21.8801 15.536 21.9341C14.362 21.9881 13.988 22.0001 11 22.0001C8.012 22.0001 7.638 21.9871 6.465 21.9341C5.295 21.8811 4.495 21.6941 3.795 21.4221C3.06092 21.146 2.39582 20.7133 1.846 20.1541C1.28638 19.6047 0.853315 18.9399 0.577 18.2061C0.306 17.5061 0.12 16.7061 0.066 15.5361C0.012 14.3611 0 13.9871 0 11.0001C0 8.01206 0.013 7.63806 0.066 6.46606C0.119 5.29406 0.306 4.49406 0.577 3.79406C0.853723 3.06014 1.28712 2.39537 1.847 1.84606C2.39604 1.28656 3.06047 0.853505 3.794 0.577061C4.494 0.306061 5.294 0.120061 6.464 0.066061H6.465ZM15.445 2.04606C14.285 1.99306 13.937 1.98206 11 1.98206C8.063 1.98206 7.715 1.99306 6.555 2.04606C5.482 2.09506 4.9 2.27406 4.512 2.42506C3.999 2.62506 3.632 2.86206 3.247 3.24706C2.88205 3.60211 2.60118 4.03434 2.425 4.51206C2.274 4.90006 2.095 5.48206 2.046 6.55506C1.993 7.71506 1.982 8.06306 1.982 11.0001C1.982 13.9371 1.993 14.2851 2.046 15.4451C2.095 16.5181 2.274 17.1001 2.425 17.4881C2.601 17.9651 2.882 18.3981 3.247 18.7531C3.602 19.1181 4.035 19.3991 4.512 19.5751C4.9 19.7261 5.482 19.9051 6.555 19.9541C7.715 20.0071 8.062 20.0181 11 20.0181C13.938 20.0181 14.285 20.0071 15.445 19.9541C16.518 19.9051 17.1 19.7261 17.488 19.5751C18.001 19.3751 18.368 19.1381 18.753 18.7531C19.118 18.3981 19.399 17.9651 19.575 17.4881C19.726 17.1001 19.905 16.5181 19.954 15.4451C20.007 14.2851 20.018 13.9371 20.018 11.0001C20.018 8.06306 20.007 7.71506 19.954 6.55506C19.905 5.48206 19.726 4.90006 19.575 4.51206C19.375 3.99906 19.138 3.63206 18.753 3.24706C18.3979 2.88213 17.9657 2.60127 17.488 2.42506C17.1 2.27406 16.518 2.09506 15.445 2.04606ZM9.595 14.3911C10.3797 14.7177 11.2534 14.7618 12.0669 14.5158C12.8805 14.2698 13.5834 13.749 14.0556 13.0423C14.5278 12.3356 14.7401 11.4869 14.656 10.6412C14.572 9.7954 14.197 9.00504 13.595 8.40506C13.2112 8.02154 12.7472 7.72787 12.2363 7.54521C11.7255 7.36254 11.1804 7.29542 10.6405 7.34868C10.1006 7.40193 9.57915 7.57424 9.1138 7.85319C8.64845 8.13215 8.25074 8.51081 7.9493 8.96191C7.64786 9.41302 7.45019 9.92535 7.37052 10.462C7.29084 10.9987 7.33115 11.5464 7.48854 12.0656C7.64593 12.5848 7.91648 13.0627 8.28072 13.4648C8.64496 13.8669 9.09382 14.1832 9.595 14.3911ZM7.002 7.00206C7.52702 6.47704 8.15032 6.06056 8.8363 5.77642C9.52228 5.49228 10.2575 5.34604 11 5.34604C11.7425 5.34604 12.4777 5.49228 13.1637 5.77642C13.8497 6.06056 14.473 6.47704 14.998 7.00206C15.523 7.52709 15.9395 8.15038 16.2236 8.83636C16.5078 9.52234 16.654 10.2576 16.654 11.0001C16.654 11.7426 16.5078 12.4778 16.2236 13.1638C15.9395 13.8497 15.523 14.473 14.998 14.9981C13.9377 16.0584 12.4995 16.6541 11 16.6541C9.50046 16.6541 8.06234 16.0584 7.002 14.9981C5.94166 13.9377 5.34597 12.4996 5.34597 11.0001C5.34597 9.50052 5.94166 8.0624 7.002 7.00206ZM17.908 6.18806C18.0381 6.06533 18.1423 5.91774 18.2143 5.75404C18.2863 5.59033 18.3248 5.41383 18.3274 5.23499C18.33 5.05615 18.2967 4.87861 18.2295 4.71287C18.1622 4.54713 18.0624 4.39657 17.936 4.2701C17.8095 4.14363 17.6589 4.04382 17.4932 3.97658C17.3275 3.90934 17.1499 3.87604 16.9711 3.87864C16.7922 3.88125 16.6157 3.91972 16.452 3.99176C16.2883 4.0638 16.1407 4.16796 16.018 4.29806C15.7793 4.55109 15.6486 4.88718 15.6537 5.23499C15.6588 5.5828 15.7992 5.91494 16.0452 6.1609C16.2911 6.40687 16.6233 6.54729 16.9711 6.55236C17.3189 6.55743 17.655 6.42675 17.908 6.18806Z" fill="white"/>
</svg>
