<svg width="68" height="84" viewBox="0 0 68 84" fill="none" xmlns="http://www.w3.org/2000/svg">
<path fill-rule="evenodd" clip-rule="evenodd" d="M40.241 40.3543C41.1434 38.2536 41.5234 36.4134 41.7252 34.9795C43.6014 21.259 32.6772 13.7401 21.0643 10.2919C17.9533 9.36636 12.8712 8.99946 9.03592 10.3911C6.3405 11.3679 4.25064 13.1917 3.72818 16.2024C3.14635 19.4824 4.7494 22.9092 7.33795 26.0005C11.0783 30.4746 16.8609 34.2607 20.4944 35.9048C24.686 37.7999 31.4661 40.0251 38.3531 41.3292C37.2013 43.5183 35.4558 45.9414 32.7485 48.4429C31.5492 49.5591 29.8987 50.5133 28.0226 51.2806C26.6096 48.5368 24.591 45.95 21.9668 43.6675C19.7583 41.752 14.3674 38.6011 9.59402 37.6341C6.18616 36.9464 3.0989 37.3892 1.46027 39.8507C-0.570194 42.9105 0.142205 45.7623 2.12518 48.1478C4.91559 51.5082 10.3183 53.8958 13.5125 54.4848C17.2291 55.168 22.7386 54.5342 27.3576 52.8926C31.6442 62.415 28.5213 73.6157 18.4758 79.776C18.179 79.9624 18.084 80.3602 18.2621 80.6642C18.4521 80.9682 18.8558 81.0632 19.1527 80.8767C29.78 74.3567 33.1046 62.5063 28.5806 52.4248C30.5755 51.6033 32.3447 50.5826 33.6271 49.3911C36.6075 46.6335 38.4836 43.9628 39.6829 41.5695C40.9772 41.7918 42.2715 41.9783 43.5539 42.121C49.3128 42.7652 54.7155 42.4989 58.2658 40.646C66.4708 36.3655 68.7507 27.8855 67.1952 19.6079C65.6515 11.4099 60.3439 3.44084 53.4688 0.0661062C53.1482 -0.090988 52.7563 0.0415284 52.602 0.361654C52.4476 0.681898 52.5782 1.06935 52.8988 1.22633C59.4415 4.43755 64.4641 12.0454 65.9246 19.8461C67.3733 27.5672 65.319 35.5075 57.6721 39.5002C54.288 41.2589 49.1704 41.4482 43.6964 40.8367C42.5565 40.7094 41.4046 40.5465 40.241 40.3543ZM26.7995 51.7474C25.4577 49.1894 23.5698 46.7756 21.1119 44.6432C19.0102 42.8195 13.8924 39.8215 9.33277 38.9007C6.50674 38.3296 3.89442 38.5216 2.54077 40.5658C0.878398 43.0588 1.50777 45.3792 3.12265 47.3228C5.7112 50.456 10.7696 52.6647 13.75 53.2138C17.2409 53.8577 22.4417 53.2791 26.7995 51.7474ZM38.9348 40.1239C39.861 38.0397 40.241 36.2156 40.4429 34.8043C42.224 21.7954 31.7036 14.8001 20.6963 11.5308C17.799 10.6674 13.0613 10.3079 9.47528 11.6059C7.23108 12.4224 5.43807 13.91 4.99873 16.4265C4.47627 19.3654 6.00803 22.401 8.32347 25.171C11.9332 29.4888 17.5259 33.1408 21.0287 34.7275C25.2203 36.6229 32.036 38.8527 38.9348 40.1239Z" fill="#FF6700"/>
<path fill-rule="evenodd" clip-rule="evenodd" d="M19.2858 79.9628C19.5233 79.3478 20.2001 77.575 20.2951 77.3042C20.5563 76.5443 20.5801 76.1263 20.5563 75.6989C20.5326 75.3557 20.4614 75.003 20.497 74.3571C20.5207 74.0009 20.2357 73.6981 19.8795 73.6803C19.5233 73.6624 19.2264 73.9379 19.2027 74.2942C19.1789 74.8795 19.2146 75.2512 19.2502 75.5766C19.2858 75.9518 19.2977 76.2439 19.0721 76.8839C18.9652 77.1962 18.1815 78.8692 17.9796 79.7004C17.8728 80.1338 17.9321 80.4592 18.0152 80.6017C18.134 80.8059 18.3478 80.9983 18.6803 81.1301C19.1077 81.2975 19.8202 81.3949 20.6157 81.5219C21.3638 81.6395 22.2068 81.7891 22.943 82.1049C23.5604 82.3745 24.0948 82.764 24.3561 83.4123C24.4867 83.7436 24.8548 83.9074 25.1872 83.7768C25.5197 83.6462 25.6859 83.2698 25.5553 82.9385C25.1753 81.9577 24.3917 81.3272 23.4537 80.9199C22.6225 80.5601 21.6725 80.3784 20.8176 80.2455C20.307 80.1635 19.832 80.1006 19.4639 80.0163C19.4045 80.0032 19.3452 79.983 19.2858 79.9628Z" fill="#FF6700"/>
</svg>
