<svg width="17" height="17" viewBox="0 0 17 17" fill="none" xmlns="http://www.w3.org/2000/svg">
<path d="M16.4025 6.59655C16.3263 6.36014 16.1862 6.14942 15.9976 5.98773C15.8091 5.82604 15.5795 5.71967 15.3342 5.68041L11.4857 5.05496L9.70159 1.58809C9.58795 1.36738 9.41571 1.18224 9.20377 1.05298C8.99183 0.923727 8.74838 0.855347 8.50013 0.855347C8.25189 0.855347 8.00844 0.923727 7.7965 1.05298C7.58456 1.18224 7.41232 1.36738 7.29868 1.58809L5.51461 5.05496L1.66613 5.68041C1.42112 5.72028 1.19182 5.82688 1.0034 5.9885C0.81498 6.15012 0.674718 6.36052 0.598005 6.59661C0.521292 6.8327 0.511092 7.08536 0.568524 7.32687C0.625956 7.56837 0.748801 7.78939 0.923579 7.96568L3.66948 10.7338L3.07514 14.5871C3.037 14.8326 3.06729 15.0838 3.16268 15.3131C3.25807 15.5424 3.41485 15.741 3.61579 15.887C3.81674 16.033 4.05405 16.1208 4.30163 16.1406C4.54922 16.1605 4.79748 16.1117 5.01912 15.9995L8.50013 14.2434L11.9812 15.9995C12.2029 16.1114 12.4511 16.1601 12.6986 16.1401C12.9461 16.1202 13.1833 16.0324 13.3842 15.8864C13.585 15.7405 13.7418 15.542 13.8372 15.3128C13.9327 15.0836 13.9631 14.8325 13.9252 14.5871L13.3309 10.7338L16.0768 7.96568C16.2521 7.78974 16.3753 7.56871 16.4328 7.32707C16.4903 7.08542 16.4798 6.83259 16.4025 6.59655ZM15.3224 7.21744L12.199 10.3661L12.8751 14.7492C12.8835 14.8017 12.8772 14.8555 12.8569 14.9046C12.8366 14.9537 12.803 14.9963 12.76 15.0275C12.717 15.0588 12.6662 15.0775 12.6132 15.0816C12.5602 15.0858 12.5071 15.0752 12.4598 15.051L8.50013 13.0534L4.54046 15.051C4.49313 15.0752 4.44002 15.0858 4.38703 15.0817C4.33403 15.0776 4.28321 15.0588 4.24021 15.0276C4.1972 14.9963 4.16368 14.9538 4.14337 14.9047C4.12306 14.8556 4.11674 14.8018 4.12512 14.7493L4.80131 10.3661L1.67792 7.21741C1.64062 7.17973 1.61441 7.13251 1.60217 7.08092C1.58992 7.02933 1.59211 6.97537 1.60849 6.92494C1.62488 6.87451 1.65482 6.82957 1.69505 6.79503C1.73528 6.76049 1.78424 6.73769 1.83657 6.72913L6.2141 6.01772L8.24344 2.07428C8.26771 2.02711 8.3045 1.98754 8.34978 1.95991C8.39507 1.93228 8.44709 1.91766 8.50013 1.91766C8.55318 1.91766 8.6052 1.93228 8.65048 1.95991C8.69577 1.98754 8.73256 2.02711 8.75683 2.07428L10.7862 6.01772L15.1637 6.72913C15.216 6.73769 15.265 6.76049 15.3052 6.79503C15.3454 6.82957 15.3754 6.87451 15.3918 6.92494C15.4082 6.97537 15.4103 7.02933 15.3981 7.08092C15.3859 7.13251 15.3596 7.17973 15.3223 7.21741L15.3224 7.21744Z" fill="#FFB800"/>
</svg>
